<svg width="32" height="32" viewBox="0 0 32 32" fill="none" xmlns="http://www.w3.org/2000/svg">
  <defs>
    <linearGradient id="shieldGradient" x1="0%" y1="0%" x2="100%" y2="100%">
      <stop offset="0%" style="stop-color:#3B82F6;stop-opacity:1" />
      <stop offset="100%" style="stop-color:#1E40AF;stop-opacity:1" />
    </linearGradient>
    <linearGradient id="messageGradient" x1="0%" y1="0%" x2="100%" y2="100%">
      <stop offset="0%" style="stop-color:#10B981;stop-opacity:1" />
      <stop offset="100%" style="stop-color:#059669;stop-opacity:1" />
    </linearGradient>
  </defs>
  
  <!-- Background circle -->
  <circle cx="16" cy="16" r="15" fill="url(#shieldGradient)" stroke="#1E40AF" stroke-width="2"/>
  
  <!-- Shield icon -->
  <path d="M16 4L20 6V12C20 16.5 16 20 16 20S12 16.5 12 12V6L16 4Z" fill="white" opacity="0.9"/>
  
  <!-- Message bubble -->
  <ellipse cx="16" cy="22" rx="6" ry="4" fill="url(#messageGradient)" opacity="0.8"/>
  <path d="M13 24L16 22L19 24" stroke="url(#messageGradient)" stroke-width="1" fill="none"/>
  
  <!-- Lock icon inside shield -->
  <rect x="14" y="9" width="4" height="3" rx="1" fill="#1E40AF"/>
  <path d="M15 9V7C15 6.4 15.4 6 16 6S17 6.4 17 7V9" stroke="#1E40AF" stroke-width="1" fill="none"/>
</svg>
